<svg width="734" height="506" viewBox="0 0 734 506" fill="none" xmlns="http://www.w3.org/2000/svg">
<path d="M444.26 444.209L428.944 454.933L321.948 329.938L319.012 305.82L334.327 295.096L501.219 283.886L486.627 324.898L471.311 335.622L372.055 327.615L458.708 403.473L444.26 444.209ZM447.807 476.612L562.283 287.704L577.598 276.98L607.956 287.753L477.596 487.201L462.281 497.925L447.807 476.612ZM553.57 483.232L552.723 453.198L568.039 442.476L683.181 438.682L596.111 363.475L595.178 333.756L610.496 323.032L733.03 437.077L720.756 471.626L705.44 482.35L553.57 483.232Z" fill="#BED0E2"/>
<path d="M428.944 454.933L306.63 340.662L319.014 305.822L485.903 294.613L471.313 335.625L356.742 338.342L443.395 414.199L428.944 454.933ZM432.492 487.334L562.283 287.702L592.639 298.473L462.278 497.923L432.492 487.334ZM538.252 493.956L552.723 453.198L667.866 449.406L580.793 374.199L595.178 333.756L717.712 447.801L705.44 482.35L538.252 493.956Z" fill="#EDF1F4"/>
<path d="M224.315 16.257H105.886C96.492 16.257 88.873 23.874 88.873 33.269V98.189C88.873 107.585 96.493 115.202 105.886 115.202H179.945L197.894 139.367C199.802 141.938 203.883 140.583 203.878 137.383L203.85 115.2H224.313C233.709 115.2 241.326 107.582 241.326 98.188V33.267C241.328 23.872 233.714 16.257 224.315 16.257Z" fill="#EDF1F4"/>
<path d="M203.274 75.746H168.254C167.973 75.746 167.704 75.6344 167.505 75.4358C167.307 75.2372 167.195 74.9679 167.195 74.687C167.195 74.4061 167.307 74.1368 167.505 73.9382C167.704 73.7396 167.973 73.628 168.254 73.628H203.274C203.555 73.628 203.824 73.7396 204.023 73.9382C204.221 74.1368 204.333 74.4061 204.333 74.687C204.333 74.9679 204.221 75.2372 204.023 75.4358C203.824 75.6344 203.555 75.746 203.274 75.746ZM161.88 75.746H147.7C147.419 75.746 147.15 75.6344 146.951 75.4358C146.753 75.2372 146.641 74.9679 146.641 74.687C146.641 74.4061 146.753 74.1368 146.951 73.9382C147.15 73.7396 147.419 73.628 147.7 73.628H161.88C162.161 73.628 162.43 73.7396 162.629 73.9382C162.827 74.1368 162.939 74.4061 162.939 74.687C162.939 74.9679 162.827 75.2372 162.629 75.4358C162.43 75.6344 162.161 75.746 161.88 75.746ZM203.274 91.774H184.619C184.338 91.774 184.069 91.6624 183.87 91.4638C183.672 91.2652 183.56 90.9959 183.56 90.715C183.56 90.4341 183.672 90.1648 183.87 89.9662C184.069 89.7676 184.338 89.656 184.619 89.656H203.274C203.555 89.656 203.824 89.7676 204.023 89.9662C204.221 90.1648 204.333 90.4341 204.333 90.715C204.333 90.9959 204.221 91.2652 204.023 91.4638C203.824 91.6624 203.555 91.774 203.274 91.774ZM179.084 91.774H147.7C147.419 91.774 147.15 91.6624 146.951 91.4638C146.753 91.2652 146.641 90.9959 146.641 90.715C146.641 90.4341 146.753 90.1648 146.951 89.9662C147.15 89.7676 147.419 89.656 147.7 89.656H179.084C179.365 89.656 179.634 89.7676 179.833 89.9662C180.031 90.1648 180.143 90.4341 180.143 90.715C180.143 90.9959 180.031 91.2652 179.833 91.4638C179.634 91.6624 179.365 91.774 179.084 91.774Z" fill="#2A2B3C"/>
<path d="M196.951 42.055H153.409C153.128 42.055 152.859 41.9434 152.66 41.7448C152.462 41.5462 152.35 41.2769 152.35 40.996C152.35 40.7151 152.462 40.4458 152.66 40.2472C152.859 40.0486 153.128 39.937 153.409 39.937H196.951C197.232 39.937 197.501 40.0486 197.7 40.2472C197.898 40.4458 198.01 40.7151 198.01 40.996C198.01 41.2769 197.898 41.5462 197.7 41.7448C197.501 41.9434 197.232 42.055 196.951 42.055ZM145.485 42.055H127.853C127.572 42.055 127.303 41.9434 127.104 41.7448C126.906 41.5462 126.794 41.2769 126.794 40.996C126.794 40.7151 126.906 40.4458 127.104 40.2472C127.303 40.0486 127.572 39.937 127.853 39.937H145.485C146.07 39.937 146.543 40.411 146.543 40.996C146.543 41.581 146.07 42.055 145.485 42.055ZM196.951 59.249H173.758C173.477 59.249 173.208 59.1374 173.009 58.9388C172.811 58.7402 172.699 58.4709 172.699 58.19C172.699 57.9091 172.811 57.6398 173.009 57.4412C173.208 57.2426 173.477 57.131 173.758 57.131H196.951C197.232 57.131 197.501 57.2426 197.7 57.4412C197.898 57.6398 198.01 57.9091 198.01 58.19C198.01 58.4709 197.898 58.7402 197.7 58.9388C197.501 59.1374 197.232 59.249 196.951 59.249ZM166.875 59.249H127.856C127.575 59.249 127.306 59.1374 127.107 58.9388C126.909 58.7402 126.797 58.4709 126.797 58.19C126.797 57.9091 126.909 57.6398 127.107 57.4412C127.306 57.2426 127.575 57.131 127.856 57.131H166.875C167.156 57.131 167.425 57.2426 167.624 57.4412C167.822 57.6398 167.934 57.9091 167.934 58.19C167.934 58.4709 167.822 58.7402 167.624 58.9388C167.425 59.1374 167.156 59.249 166.875 59.249Z" fill="#2A2B3C"/>
<path d="M224.653 82.447C223.716 82.497 223.009 82.64 222.533 82.871C222.058 83.104 221.65 83.491 221.311 84.037C220.971 84.583 220.731 85.267 220.586 86.09C220.486 86.708 220.434 87.774 220.434 89.29C220.434 91.78 220.323 93.52 220.096 94.512C219.87 95.501 219.457 96.296 218.853 96.893C218.249 97.49 217.363 97.961 216.192 98.309C215.408 98.539 214.177 98.654 212.493 98.654H211.472V94.029C212.848 94.029 213.748 93.943 214.17 93.77C214.592 93.598 214.905 93.343 215.105 93.02C215.304 92.69 215.406 92.135 215.413 91.352C215.418 90.568 215.471 89.07 215.574 86.862C215.639 85.525 215.814 84.457 216.096 83.652C216.379 82.848 216.754 82.167 217.223 81.609C217.692 81.052 218.293 80.559 219.023 80.135C218.074 79.517 217.379 78.915 216.941 78.325C216.337 77.476 215.926 76.396 215.709 75.085C215.567 74.185 215.467 72.208 215.399 69.15C215.388 68.187 215.301 67.543 215.14 67.223C214.982 66.901 214.692 66.654 214.273 66.482C213.855 66.309 212.922 66.222 211.469 66.222V61.616H212.491C214.224 61.616 215.553 61.752 216.479 62.02C217.403 62.29 218.182 62.75 218.811 63.398C219.443 64.047 219.868 64.844 220.094 65.789C220.32 66.731 220.432 68.219 220.432 70.249C220.432 72.599 220.528 74.134 220.721 74.857C221.003 75.883 221.435 76.62 222.013 77.061C222.592 77.504 223.471 77.759 224.653 77.824V82.447ZM104.237 47.907C105.42 47.844 106.299 47.59 106.878 47.147C107.456 46.703 107.887 45.967 108.169 44.94C108.363 44.22 108.459 42.687 108.459 40.334C108.459 38.304 108.571 36.817 108.797 35.872C109.023 34.927 109.447 34.132 110.079 33.484C110.721 32.8273 111.524 32.3516 112.409 32.105C113.333 31.837 114.665 31.699 116.4 31.699H117.421V36.306C115.971 36.306 115.035 36.392 114.618 36.567C114.201 36.74 113.911 36.989 113.75 37.309C113.592 37.631 113.505 38.269 113.491 39.235C113.429 42.293 113.326 44.271 113.184 45.169C112.965 46.482 112.552 47.559 111.95 48.409C111.511 49.001 110.821 49.605 109.87 50.219C110.6 50.643 111.201 51.135 111.668 51.692C112.137 52.252 112.514 52.933 112.797 53.738C113.079 54.54 113.251 55.611 113.317 56.948C113.419 59.156 113.473 60.653 113.48 61.437C113.484 62.221 113.59 62.776 113.788 63.104C113.988 63.434 114.298 63.681 114.721 63.856C115.147 64.028 116.043 64.114 117.419 64.114V68.739H116.397C114.714 68.739 113.482 68.623 112.696 68.392C111.528 68.047 110.642 67.573 110.038 66.976C109.431 66.379 109.018 65.586 108.794 64.595C108.568 63.605 108.456 61.865 108.456 59.373C108.456 57.859 108.405 56.793 108.302 56.175C108.16 55.352 107.92 54.668 107.579 54.12C107.239 53.577 106.831 53.19 106.355 52.956C105.882 52.726 105.173 52.583 104.237 52.532V47.907Z" fill="#EA3E72"/>
<path d="M386.061 229.246H331.684V174.865H386.061V229.246ZM333.538 227.391H384.21V176.719H333.538V227.391Z" fill="#ADB0E1"/>
<path d="M358.87 219.161C357.888 219.161 356.902 218.881 356.034 218.307L334.489 204.056C333.925 203.684 333.44 203.204 333.062 202.644C332.684 202.084 332.419 201.454 332.284 200.792C332.15 200.13 332.146 199.448 332.275 198.784C332.404 198.121 332.663 197.489 333.036 196.926C333.408 196.362 333.888 195.877 334.448 195.499C335.008 195.121 335.638 194.856 336.3 194.722C336.962 194.587 337.644 194.583 338.308 194.712C338.971 194.841 339.603 195.1 340.166 195.473L358.114 207.345L391.486 172.246C391.951 171.756 392.509 171.362 393.126 171.088C393.744 170.813 394.41 170.663 395.085 170.646C395.761 170.629 396.433 170.746 397.064 170.989C397.694 171.233 398.271 171.598 398.76 172.064C399.25 172.53 399.643 173.087 399.917 173.705C400.191 174.322 400.341 174.988 400.358 175.663C400.375 176.339 400.259 177.011 400.016 177.642C399.773 178.272 399.408 178.849 398.942 179.338L362.602 217.563C362.121 218.068 361.542 218.471 360.9 218.746C360.259 219.02 359.568 219.162 358.87 219.161Z" fill="#4093F6"/>
<path d="M316.036 486.023C316.628 483.192 316.656 480.962 315.415 476.862C315.42 476.813 315.399 476.79 315.399 476.79C314.424 473.606 313.883 472.286 313.051 469.149C307.393 468.225 300.347 469.198 295.778 471.411C296.513 475.796 296.462 476.925 295.699 479.348C295.581 479.751 295.419 480.14 295.216 480.507C292.548 485.606 283.894 489.009 280.311 492.442C279.313 493.331 278.716 494.24 278.688 495.162C278.483 499.864 314.56 492.822 316.036 486.023Z" fill="#EA3E72"/>
<path d="M278.814 494.623C278.746 494.792 278.713 494.973 278.718 495.155C278.389 500.192 315.303 493.146 316.707 486.576L316.726 486.548C316.866 486.203 316.947 485.818 317.001 485.419C317.493 482.065 315.676 477.492 315.406 476.848C315.425 476.82 315.394 476.801 315.394 476.801C306.075 482.854 295.223 480.489 295.223 480.489C292.879 484.969 285.955 488.148 281.867 491.138C280.22 492.195 279.087 493.375 278.814 494.623Z" fill="#FFD357"/>
<path d="M278.814 494.623C278.746 494.792 278.713 494.973 278.718 495.155C278.389 500.192 315.303 493.146 316.707 486.576L316.726 486.548C316.866 486.203 316.947 485.818 317.001 485.419C315.114 486.917 311.166 489.559 304.972 491.267C296.954 493.485 288.467 495.446 278.814 494.623Z" fill="#2A2B3B"/>
<path d="M188.847 482.695C193.556 480.846 202.001 480.179 205.91 476.409C206.227 476.113 206.499 475.796 206.733 475.463C208.223 473.403 208.629 472.349 209.315 467.955C214.35 467.302 221.342 468.603 226.417 471.269C226.214 474.509 226.312 475.931 226.232 479.26C226.232 479.26 226.244 479.292 226.223 479.334C226.13 482.718 224.544 486.436 223.629 488.372C211.908 487.395 200.364 485.711 188.847 482.695Z" fill="#EA3E72"/>
<path d="M184.516 486.786C184.446 488.864 220.968 493.48 223.277 490.658L223.301 490.634C223.443 490.495 223.534 490.331 223.65 490.168C223.744 490.005 223.837 489.841 223.93 489.655C225.444 486.623 226.267 480.008 226.221 479.306C226.244 479.283 226.221 479.26 226.221 479.26C215.469 482.058 205.93 476.391 205.93 476.391C202.29 479.915 194.71 480.729 189.883 482.271C185.172 483.313 184.54 486.693 184.516 486.786Z" fill="#FFD357"/>
<path d="M184.346 487.497C184.278 489.573 220.588 494.369 222.895 491.546C222.895 491.546 223.532 490.331 223.651 490.168C211.481 491.11 193.88 488.37 184.633 486.53C184.586 486.625 184.367 487.404 184.346 487.497Z" fill="#2A2B3B"/>
<path d="M110.532 194.625C110.448 194.56 110.357 194.511 110.276 194.439C109.088 193.359 111.006 191.055 112.197 192.137C112.279 192.211 112.384 192.249 112.47 192.316C112.477 191.474 113.333 190.383 114.812 191.027C115.241 191.213 121.274 193.928 126.911 193.112C125.801 192.442 123.938 191.353 122.471 191.043C120.913 190.714 121.277 188.225 122.839 188.573C123.086 188.627 125.099 189.126 125.353 189.28C132.366 191.479 138.976 196.141 144.232 201.319C145.165 202.098 146.055 202.927 146.898 203.803C147.201 204.123 147.196 204.678 147.045 205.053C146.287 206.98 143.659 210.733 142.332 212.307C142.201 212.451 142.04 212.565 141.861 212.64C142.36 213.856 140.634 215.036 139.75 213.835C137.397 210.63 132.285 205.475 132.233 205.438C125.218 204.906 118.431 204.277 111.978 201.366C110.675 200.778 111.276 198.581 112.463 198.642C112.475 198.632 112.484 198.621 112.498 198.611C112.477 198.604 112.459 198.59 112.442 198.581C112.046 198.441 110.346 197.492 109.87 197.126C108.965 196.424 109.704 194.898 110.532 194.625Z" fill="#EA3E72"/>
<path d="M125.833 196.358C119.394 196.358 112.402 192.608 112.333 192.571C112.265 192.534 112.214 192.471 112.192 192.397C112.169 192.323 112.177 192.242 112.214 192.174C112.252 192.107 112.315 192.058 112.388 192.035C112.462 192.013 112.541 192.02 112.61 192.055C112.678 192.095 119.546 195.775 125.833 195.775H126.02C126.179 195.775 126.309 195.904 126.312 196.064C126.312 196.141 126.282 196.215 126.227 196.27C126.173 196.326 126.099 196.357 126.022 196.358H125.833ZM124.768 199.579C119.308 199.579 110.77 195.08 110.397 194.882C110.329 194.846 110.277 194.784 110.255 194.71C110.232 194.636 110.239 194.556 110.275 194.488C110.312 194.421 110.374 194.37 110.448 194.347C110.522 194.325 110.601 194.331 110.67 194.366C110.761 194.415 119.455 198.991 124.772 198.991C124.943 198.991 125.108 198.987 125.269 198.977H125.288C125.362 198.98 125.432 199.011 125.484 199.064C125.536 199.116 125.566 199.186 125.568 199.26C125.571 199.334 125.545 199.406 125.497 199.462C125.448 199.518 125.38 199.553 125.307 199.561C125.128 199.573 124.948 199.579 124.768 199.579ZM124.42 202.147H124.416C120.293 202.077 112.678 199.043 112.353 198.915C112.282 198.885 112.225 198.829 112.195 198.757C112.165 198.686 112.164 198.606 112.193 198.534C112.223 198.463 112.28 198.407 112.351 198.377C112.422 198.347 112.501 198.346 112.573 198.374C112.65 198.406 120.411 201.497 124.425 201.564C124.502 201.566 124.576 201.598 124.629 201.653C124.683 201.708 124.713 201.783 124.712 201.86C124.711 201.937 124.68 202.01 124.625 202.064C124.571 202.118 124.497 202.148 124.42 202.147Z" fill="#2A2B3C"/>
<path d="M254.837 181.881C229.859 170.367 202.339 202.264 188.22 219.01C174.098 235.754 182.065 249.372 191.24 247.957C220.029 243.516 269.977 188.862 254.837 181.881Z" fill="#3F4261"/>
<path d="M141.513 194.625C164.742 192.316 193.747 210.76 201.604 220.062C209.461 229.363 192.49 248.638 188.483 247.926C184.477 247.215 134.423 230.375 132.343 210.982C132.34 210.984 137.625 195.012 141.513 194.625Z" fill="#3F4261"/>
<path d="M136.221 219.516C136.221 219.516 156.336 244.542 191.24 247.957C195.576 248.381 219.84 235.178 219.84 235.178L216.39 215.388C216.39 215.388 199.521 238.907 191.1 240.514C182.681 242.123 136.221 219.516 136.221 219.516Z" fill="#343751"/>
<path d="M238.884 481.149C246.392 460.834 250.342 431.146 250.911 409.679C251.541 385.987 260.551 315.578 262.626 303.753C264.093 295.394 266.672 286.261 263.375 278.002C257.164 262.459 218.375 259.299 217.664 259.984C206.653 270.587 208.857 289.018 207.288 303.723C205.352 321.866 203.955 340.182 203.379 358.423C202.833 375.718 192.872 474.548 193.878 473.567C208.092 478.567 228.406 484.981 238.884 481.149Z" fill="#4093F6"/>
<path d="M243.759 294.142C243.759 294.142 236.722 380.035 233.224 395.244C229.726 410.453 222.944 467.591 212.358 479.372C212.358 479.372 229.224 484.533 238.884 481.149C238.884 481.149 248.85 452.774 250.562 419.757C252.269 386.74 264.982 314.606 264.982 314.606L243.759 294.142Z" fill="#2483E2"/>
<path d="M245.202 301.038L259.062 350.58L254.193 384.284L245.202 301.038Z" fill="#2A2B3B"/>
<path d="M247.831 313.458C250.839 331.464 254.386 349.467 258.722 367.219C262.827 384.011 278.805 482.362 279.504 481.151C306.324 483.973 318.762 479.402 326.486 474.427C328.282 452.827 323.464 424.687 318.265 403.836C312.505 380.863 302.313 310.613 301.147 298.648C300.377 290.645 299.538 276.185 294.874 268.698C294.619 268.278 294.339 267.882 294.057 267.509C283.91 254.191 246.62 267.695 246.105 268.535C238.339 281.713 245.405 298.881 247.831 313.458Z" fill="#4093F6"/>
<path d="M280.647 285.001C280.647 285.001 293.357 311.706 292.891 324.045C292.424 336.359 289.509 385.852 297.903 405.677C306.301 425.501 308.85 481.147 308.85 481.147C308.85 481.147 318.081 479.591 326.486 474.422C328.282 452.823 323.464 424.683 318.265 403.832C312.505 380.858 302.313 310.608 301.147 298.643C300.377 290.641 299.538 276.18 294.873 268.693L280.647 272.449V285.001Z" fill="#2483E2"/>
<path d="M209.212 278.496C209.212 278.496 253.029 290.198 299.274 281.955L297.847 270.995L209.212 278.496Z" fill="#2A2B3B"/>
<path d="M226.477 186.094C226.477 186.094 213.298 197.769 206.234 217.011C201.781 229.142 200.119 245.039 200.119 245.039L216.18 236.353L226.477 186.094Z" fill="#17171D"/>
<path d="M301.362 277.748C301.362 277.748 290.792 195.801 266.5 181.744C250.86 172.694 226.727 180.652 221.339 192.531C210.83 215.7 204.701 277.652 204.701 277.652C204.701 277.652 260.886 289.43 301.362 277.748Z" fill="#EDF1F4"/>
<path d="M239.477 167.237C239.477 167.237 239.759 177.578 240.071 179.663C240.167 180.3 249.703 179.838 250.928 178.609C249.981 176.001 249.491 172.188 249.491 167.237C249.491 162.551 239.477 167.237 239.477 167.237Z" fill="#EA3E72"/>
<path d="M250.758 160.778C250.758 160.778 248.586 173.394 240.617 173.641C232.65 173.886 237.641 156.466 238.835 155.985C240.036 155.505 247.807 153.809 250.758 160.778Z" fill="#EA3E72"/>
<path d="M241.035 149.828C242.11 149.289 243.285 149.061 244.496 149.292C245.953 149.569 246.87 150.686 248.281 150.836C251.434 151.174 252.968 153.208 252.63 155.892C252.71 155.967 252.794 156.037 252.859 156.144C254.013 158.105 254.755 160.174 253.598 162.052C254.862 164.319 252.941 167.288 251.485 169.137C251.375 169.273 251.232 169.379 251.07 169.445C250.664 170.213 249.246 170.341 248.876 169.245C247.94 166.486 248.754 163.164 247.719 160.608C247.222 159.384 246.128 158.483 245.309 157.329C244.083 157.714 242.926 157.541 241.823 156.848C239.199 158.238 234.871 157.627 234.141 154.367C233.173 150.033 237.832 148.708 241.035 149.828Z" fill="#17171D"/>
<path d="M246.653 163.076C246.653 163.076 247.863 160.753 250.065 161.084C252.269 161.415 252.775 166.663 249.046 167.12C245.319 167.577 246.653 163.076 246.653 163.076Z" fill="#EA3E72"/>
<path d="M236.207 167.698C236.916 167.507 237.814 167.418 238.194 166.931C238.842 166.094 239.936 166.227 239.943 167.15C240.769 168.328 242.698 168.925 243.334 168.151C243.686 167.885 244.001 167.579 244.276 167.234C244.838 166.574 245.298 165.753 245.666 164.965C246.368 163.453 246.748 161.805 247.094 160.181C247.406 158.714 249.654 159.335 249.342 160.802C248.892 162.919 248.272 165.177 247.173 167.111C247.203 167.274 247.208 167.456 247.159 167.656C246.333 171.141 244.817 173.42 241.091 174.003C239.962 174.18 238.115 173.916 237.121 173.168C235.992 172.316 235.934 168.316 236.207 167.698Z" fill="#17171D"/>
<path d="M208.109 304.04C207.631 304.04 207.318 304.017 207.269 304.014C207.192 304.008 207.121 303.971 207.071 303.913C207.021 303.855 206.996 303.779 207.001 303.702C207.012 303.541 207.148 303.45 207.313 303.431C207.362 303.443 212.055 303.76 214.119 301.691C215.844 299.968 216.402 285.787 216.472 280.467C216.473 280.391 216.505 280.318 216.559 280.264C216.613 280.21 216.687 280.18 216.763 280.18C216.901 280.171 217.057 280.313 217.055 280.476C217.043 281.267 216.778 299.861 214.534 302.104C212.818 303.821 209.629 304.04 208.109 304.04ZM243.194 467.612C241.608 467.596 204.331 467.12 194.181 460.158C194.149 460.137 194.122 460.109 194.1 460.077C194.079 460.045 194.065 460.009 194.058 459.971C194.05 459.933 194.051 459.895 194.059 459.857C194.067 459.819 194.082 459.784 194.104 459.752C194.125 459.72 194.153 459.692 194.185 459.671C194.217 459.65 194.253 459.635 194.291 459.628C194.329 459.62 194.367 459.621 194.405 459.629C194.443 459.637 194.478 459.653 194.51 459.675C204.515 466.541 242.812 467.024 243.197 467.029C243.274 467.029 243.348 467.061 243.403 467.115C243.457 467.17 243.487 467.245 243.487 467.322C243.487 467.399 243.456 467.473 243.401 467.528C243.346 467.582 243.271 467.612 243.194 467.612ZM277.286 468.078C277.21 468.077 277.138 468.047 277.084 467.994C277.03 467.941 276.998 467.87 276.995 467.794C276.994 467.717 277.023 467.643 277.076 467.587C277.129 467.531 277.202 467.498 277.279 467.495C298.647 467.036 326.104 459.708 326.379 459.633C326.416 459.623 326.455 459.62 326.493 459.625C326.531 459.63 326.568 459.643 326.601 459.662C326.634 459.682 326.663 459.707 326.686 459.738C326.71 459.769 326.726 459.804 326.736 459.841C326.746 459.878 326.749 459.917 326.744 459.955C326.739 459.993 326.726 460.029 326.707 460.063C326.687 460.096 326.662 460.125 326.631 460.148C326.6 460.171 326.565 460.188 326.528 460.197C326.253 460.27 298.731 467.617 277.293 468.078H277.286Z" fill="#2A2B3C"/>
<path d="M229.402 264.638C229.985 266.433 240.619 269.465 254.053 271.145C268.79 273.011 286.913 273.241 298.878 268.463C300.65 267.763 302.283 266.949 303.752 266.014C303.752 266.014 283.812 189.816 266.134 180.72C256.222 175.614 250.671 177.83 250.671 177.83C250.671 177.83 219.723 234.944 229.402 264.638Z" fill="#3F4261"/>
<path d="M260.816 254.28C259.977 260.88 257.178 266.618 254.055 271.143C268.792 273.008 286.916 273.239 298.88 268.46C299.997 253.932 292.163 231.679 292.163 231.679L259.023 184.12C259.023 184.12 248.899 195.015 249.134 206.464C249.365 217.942 262.962 237.37 260.816 254.28Z" fill="#343751"/>
<path d="M240.072 179.663C240.072 179.663 218.088 208.265 219.084 263.852C219.154 267.737 204.865 265.626 203.652 261.965C199.044 248.057 212.358 200.295 224.406 186.786C229.073 181.555 240.072 179.663 240.072 179.663Z" fill="#3F4261"/>
<path d="M250.674 177.837C250.674 177.837 255.259 181.961 254.895 185.38C254.531 188.804 244.097 191.309 244.097 191.309C244.097 191.309 254.093 190.886 256.205 186.094C258.318 181.296 250.674 177.837 250.674 177.837ZM240.071 179.663C240.071 179.663 230.834 182.416 229.166 187.078C228.681 188.44 233.735 190.481 233.735 190.481C233.735 190.481 227.023 190.178 227.125 186.982C227.23 183.787 240.071 179.663 240.071 179.663ZM259.872 182.987C259.872 182.987 250.494 194.658 251.784 207.875C253.073 221.093 278.145 249.468 278.924 253.745C279.7 258.021 278.599 272.626 278.599 272.626L288.835 247.947L267.263 218.954L259.872 182.987Z" fill="#17171D"/>
<path d="M259.023 181.809C246.079 206.079 270.628 237.092 286.524 252.162C302.42 267.231 320.53 245.13 319.063 238.844C317.594 232.558 266.866 167.101 259.023 181.809Z" fill="#3F4261"/>
<path d="M209.158 265.759C209.063 265.71 208.962 265.682 208.869 265.626C207.486 264.81 208.899 262.165 210.285 262.984C210.38 263.04 210.49 263.054 210.588 263.103C210.425 262.277 211.04 261.036 212.622 261.37C213.076 261.466 219.534 262.905 224.891 260.964C223.669 260.53 248.71 263.898 249.811 264.451C255.588 267.362 248.908 274.839 247.803 273.843C244.85 271.177 232.655 271.987 232.597 271.959C225.619 272.859 218.846 273.612 211.938 272.068C210.544 271.756 210.688 269.482 211.861 269.3C211.873 269.288 211.88 269.274 211.892 269.263C211.868 269.26 211.847 269.251 211.829 269.246C211.414 269.19 209.553 268.603 209.018 268.337C207.985 267.837 208.4 266.196 209.158 265.759Z" fill="#EA3E72"/>
<path d="M220.173 264.77C215.166 264.77 210.565 263.401 210.504 263.385C210.43 263.362 210.368 263.311 210.331 263.243C210.295 263.175 210.286 263.095 210.308 263.021C210.333 262.949 210.385 262.889 210.452 262.853C210.519 262.816 210.598 262.806 210.672 262.825C210.749 262.849 218.361 265.109 224.553 263.756C224.59 263.748 224.629 263.747 224.667 263.754C224.704 263.761 224.74 263.775 224.772 263.796C224.804 263.817 224.832 263.844 224.854 263.875C224.875 263.907 224.89 263.943 224.898 263.98C224.906 264.017 224.907 264.056 224.9 264.094C224.893 264.131 224.879 264.167 224.858 264.199C224.837 264.231 224.81 264.259 224.778 264.28C224.747 264.302 224.711 264.317 224.674 264.325C223.217 264.645 221.675 264.77 220.173 264.77Z" fill="#2A2B3C"/>
<path d="M140.658 267.422L216.032 269.895L216.14 266.594L140.766 264.121L140.658 267.422Z" fill="#AABFCE"/>
<path d="M216.192 269.836L250.429 265.696L250.536 262.396L216.302 266.536L216.192 269.836Z" fill="#BED0E2"/>
<path d="M250.536 262.396L165.094 257.081L140.93 264.061L216.302 266.536L250.536 262.396Z" fill="#DCE8EF"/>
<path d="M143.055 264.131L217.979 265.794L209.758 219.966L135.759 217.496L133.164 219.182L143.055 264.131Z" fill="#DCE8EF"/>
<path d="M141.228 264.071L216.302 266.536L208.577 222.448L133.164 219.182L141.228 264.071Z" fill="#BED0E2"/>
<path d="M236.797 260.248C240.825 248.311 289.857 234.21 302.029 234.429C314.203 234.648 317.521 260.113 314.345 262.66C311.169 265.207 254.685 298.928 242.66 283.324C242.66 283.324 235.549 263.947 236.797 260.248Z" fill="#3F4261"/>
<path d="M270.684 183.066C270.684 183.066 315.672 220.713 323.014 242.86C330.355 265.008 279.493 277.811 276.062 282.114C276.062 282.114 317.183 252.257 312.129 241.179C307.075 230.1 270.684 183.066 270.684 183.066Z" fill="#343751"/>
<path d="M47.763 427.822C47.822 433.261 53.706 435.414 57.763 433.254C61.085 431.491 63.144 427.834 65.39 424.848C68.692 420.461 72.415 416.457 76.412 412.797C83.418 406.383 91.207 401.028 99.232 396.182C106.07 392.051 113.858 388.832 119.835 383.305C124.231 379.242 127.133 373.623 126.414 367.172C125.761 361.299 121.762 356.7 116.125 356.334C108.669 355.846 101.576 361.663 95.675 365.621C88.318 370.561 81.149 375.865 74.609 381.985C61.929 393.852 47.756 427.223 47.763 427.822Z" fill="#3F4261"/>
<path d="M55.497 419.33C69.297 396.147 89.764 378.302 113.828 368.529C114.872 368.102 115.682 369.8 114.628 370.23C90.823 379.899 70.621 397.464 56.968 420.405C56.364 421.42 54.891 420.347 55.497 419.33Z" fill="#2A2B3C"/>
<path d="M25.971 291.273C27.438 318.034 33.877 344.077 38.686 370.288C41.268 384.359 43.406 398.561 44.016 412.902C44.267 418.889 45.87 433.982 50.602 433.049C60.87 431.027 63.89 373.026 65.709 342.265C66.544 328.159 67.006 313.885 66.419 299.756C65.961 288.773 64.054 277.302 56.892 268.871C51.381 262.38 41.893 257.813 34.299 263.096C25.561 269.176 25.43 281.412 25.971 291.273Z" fill="#4093F6"/>
<path d="M42.99 276.878C42.812 275.693 44.515 275.182 44.692 276.376C51.6292 322.974 53.9128 370.146 51.509 417.196C51.449 418.4 49.679 418.409 49.741 417.196C52.143 370.307 49.893 323.261 42.989 276.878H42.99Z" fill="#2483E2"/>
<path d="M0.692994 338.148C0.827994 346.484 3.53799 354.843 6.75899 362.356C14.014 379.277 25.465 393.667 33.192 410.32C35.466 415.221 37.264 420.254 38.705 425.492C39.423 428.107 40.128 431.274 42.544 432.725C44.477 433.882 49.697 432.004 49.692 430.903C49.636 405.22 49.51 378.731 40.48 354.486C37.159 345.574 32.702 337.117 26.865 329.782C22.517 324.32 15.57 317.934 8.35599 321.211C2.33999 323.947 0.591994 331.849 0.692994 338.148Z" fill="#92CEFF"/>
<path d="M16.93 346.416C30.923 371.494 45.268 397.987 45.89 427.936C45.916 429.149 44.146 429.149 44.12 427.936C43.505 398.332 29.23 372.147 15.404 347.366C14.819 346.323 16.351 345.376 16.93 346.416Z" fill="#4093F6"/>
<path d="M86.464 321.213C80.337 317.936 74.439 324.322 70.747 329.784C65.789 337.12 62.004 345.577 59.184 354.489C51.516 378.733 51.408 405.222 51.362 430.906C51.357 432.009 55.791 433.884 57.432 432.727C59.485 431.276 60.084 428.111 60.692 425.495C61.915 420.256 63.445 415.223 65.374 410.323C71.934 393.667 81.66 379.277 87.821 362.358C90.557 354.846 92.859 346.486 92.973 338.151C93.055 331.849 91.572 323.947 86.464 321.213Z" fill="#92CEFF"/>
<path d="M79.18 346.416C67.298 371.494 55.117 397.987 54.587 427.936C54.567 429.149 56.068 429.149 56.092 427.936C56.614 398.332 68.737 372.147 80.479 347.366C80.971 346.323 79.674 345.376 79.18 346.416Z" fill="#4093F6"/>
<path d="M65.999 495.029H35.079L26.19 424.165H74.882L65.999 495.029Z" fill="#BED0E2"/>
<path d="M75.68 183.103C74.712 183.103 73.793 182.653 73.184 181.828L60.87 165.247H19.423C12.407 165.247 6.70099 159.54 6.70099 152.524V107.092C6.70099 100.077 12.407 94.369 19.422 94.369H92.334C99.349 94.369 105.056 100.077 105.056 107.092V152.524C105.056 159.54 99.349 165.247 92.334 165.247H78.83L78.846 179.955C78.8551 180.617 78.6509 181.265 78.2638 181.802C77.8766 182.339 77.327 182.737 76.696 182.938C76.3676 183.045 76.0245 183.101 75.679 183.103H75.68ZM19.42 95.997C13.305 95.997 8.32799 100.975 8.32799 107.09V152.522C8.32799 158.637 13.305 163.614 19.42 163.614H61.69L74.496 180.855C74.979 181.501 75.686 181.555 76.18 181.389C76.681 181.224 77.213 180.759 77.213 179.957L77.192 163.617H92.33C98.445 163.617 103.422 158.64 103.422 152.524V107.092C103.422 100.977 98.445 96 92.33 96H19.42V95.997Z" fill="#BED0E2"/>
<path d="M514.445 234.448C512.394 234.453 510.423 233.651 508.957 232.216C508.203 231.486 507.604 230.611 507.195 229.644C506.787 228.677 506.577 227.638 506.579 226.588C506.573 225.539 506.779 224.5 507.184 223.533C507.589 222.566 508.185 221.69 508.936 220.958L545.72 184.583C545.895 184.41 546.132 184.315 546.378 184.316C546.624 184.318 546.86 184.417 547.033 184.592C547.205 184.768 547.301 185.004 547.299 185.25C547.298 185.496 547.199 185.732 547.024 185.905L510.238 222.283C509.664 222.843 509.208 223.512 508.899 224.252C508.589 224.992 508.431 225.786 508.435 226.588C508.434 227.39 508.594 228.184 508.906 228.923C509.218 229.662 509.676 230.331 510.252 230.889C511.423 232.027 512.959 232.676 514.597 232.594C515.399 232.577 516.189 232.399 516.92 232.07C517.651 231.741 518.309 231.268 518.853 230.679L554.237 192.93C554.406 192.751 554.639 192.647 554.885 192.639C555.131 192.631 555.37 192.72 555.55 192.888C555.729 193.057 555.835 193.29 555.842 193.536C555.85 193.782 555.76 194.021 555.592 194.201L520.21 231.948C519.498 232.718 518.638 233.336 517.681 233.765C516.725 234.195 515.691 234.427 514.643 234.448H514.445ZM574.553 192.49C568.89 192.49 563.398 190.691 558.761 187.265C552.684 182.729 548.801 175.837 548.106 168.352C547.48 161.81 549.299 155.268 553.211 149.987C557.446 144.273 563.657 140.546 570.695 139.497C577.743 138.449 584.756 140.203 590.465 144.439C595.755 148.347 599.409 154.078 600.718 160.523C601.467 164.184 601.435 167.961 600.624 171.609C599.814 175.256 598.243 178.692 596.014 181.691C591.788 187.414 585.584 191.146 578.541 192.196C577.221 192.391 575.888 192.489 574.553 192.49ZM574.676 141.057C573.447 141.057 572.209 141.148 570.97 141.332C564.419 142.307 558.643 145.775 554.699 151.095C551.061 155.998 549.377 162.064 549.948 168.18C550.597 175.142 554.211 181.556 559.867 185.777C562.479 187.718 565.451 189.123 568.609 189.909C571.767 190.696 575.05 190.849 578.268 190.36C584.821 189.383 590.591 185.915 594.521 180.59L594.526 180.588C596.6 177.798 598.062 174.602 598.816 171.209C599.57 167.816 599.599 164.301 598.901 160.896C597.682 154.899 594.283 149.567 589.36 145.931C585.12 142.763 579.969 141.053 574.676 141.057Z" fill="#ADB0E1"/>
<path d="M637.327 90.75H391.306C384.649 90.75 379.235 85.337 379.235 78.682V12.068C379.235 5.413 384.649 0 391.306 0H637.329C643.985 0 649.4 5.413 649.4 12.068V78.682C649.398 85.337 643.983 90.75 637.327 90.75ZM391.306 3.023C386.317 3.023 382.259 7.08 382.259 12.068V78.682C382.259 83.67 386.317 87.727 391.306 87.727H637.329C642.318 87.727 646.376 83.67 646.376 78.682V12.068C646.376 7.08 642.318 3.023 637.329 3.023H391.306Z" fill="#EDF1F4"/>
<path d="M514.067 88.218H516.706C517.746 88.218 518.588 87.376 518.588 86.334L516.77 80.336H510.366L512.182 86.334C512.182 86.8338 512.381 87.313 512.734 87.6663C513.088 88.0195 513.567 88.218 514.067 88.218Z" fill="#BED0E2"/>
<path d="M515.209 88.218H517.848C518.888 88.218 519.73 87.376 519.73 86.334L517.914 80.336H511.51L513.326 86.334C513.326 87.376 514.169 88.218 515.209 88.218Z" fill="#D3E0EA"/>
<path d="M492.801 88.218H495.44C496.48 88.218 497.322 87.376 497.322 86.334L499.139 80.336H492.735L490.919 86.334C490.919 87.376 491.761 88.218 492.801 88.218Z" fill="#BED0E2"/>
<path d="M504.226 83.32C519.968 83.32 532.729 70.562 532.729 54.826C532.729 39.089 519.968 26.332 504.226 26.332C488.484 26.332 475.723 39.089 475.723 54.825C475.723 70.562 488.484 83.32 504.226 83.32Z" fill="#BED0E2"/>
<path d="M514.852 32.775L526.344 38.655L531.184 29.201L519.692 23.321L514.852 32.775Z" fill="#BED0E2"/>
<path d="M514.937 25.215L532.802 34.355L532.844 34.275C535.371 29.345 533.419 23.298 528.484 20.774C523.55 18.248 517.504 20.2 514.979 25.132L514.937 25.215Z" fill="#D3E0EA"/>
<path d="M487.491 39.306L497.821 31.566L491.45 23.068L481.12 30.808L487.491 39.306Z" fill="#BED0E2"/>
<path d="M480.687 35.99L496.746 23.957L496.691 23.884C493.367 19.45 487.078 18.55 482.643 21.874C478.209 25.196 477.307 31.485 480.631 35.916L480.687 35.99Z" fill="#D3E0EA"/>
<path d="M506.68 83.396C522.422 83.396 535.183 70.639 535.183 54.902C535.183 39.165 522.422 26.408 506.68 26.408C490.938 26.408 478.177 39.165 478.177 54.902C478.177 70.639 490.938 83.396 506.68 83.396Z" fill="#D3E0EA"/>
<path d="M493.943 88.218H496.582C497.622 88.218 498.465 87.376 498.465 86.334L500.281 80.336H493.877L492.059 86.334C492.059 86.8336 492.258 87.3126 492.611 87.6659C492.964 88.0192 493.443 88.2177 493.943 88.218Z" fill="#D3E0EA"/>
<path d="M506.363 79.65C520.078 79.65 531.196 68.535 531.196 54.825C531.196 41.115 520.078 30.001 506.363 30.001C492.649 30.001 481.531 41.115 481.531 54.825C481.531 68.535 492.649 79.65 506.363 79.65Z" fill="white"/>
<path d="M506.876 31.838H505.853V36.101H506.876V31.838ZM515.984 37.295L516.87 37.806L518.338 35.263L517.452 34.753L515.984 37.295ZM523.449 44.31L523.96 45.193L526.505 43.723L525.995 42.84L523.449 44.31ZM529.36 54.315H525.098V55.338H529.36V54.315ZM524.049 64.403L523.538 65.286L526.084 66.756L526.594 65.872L524.049 64.403ZM516.746 71.965L515.86 72.475L517.329 75.021L518.215 74.51L516.746 71.965ZM506.876 73.465H505.853V77.817H506.876V73.465ZM496.747 72.357L495.86 71.847L494.393 74.39L495.279 74.9L496.747 72.357ZM489.225 65.191L488.713 64.306L486.169 65.778L486.681 66.663L489.225 65.191ZM487.72 54.315H483.366V55.338H487.72V54.315ZM488.833 45.204L489.345 44.319L486.799 42.847L486.287 43.732L488.833 45.204ZM495.981 37.69L496.867 37.179L495.399 34.633L494.512 35.144L495.981 37.69Z" fill="#BED0E2"/>
<path d="M520.95 41.653L519.654 40.357L505.052 54.954L506.348 56.25L520.95 41.653ZM518.314 65.912L519.015 64.972L507.79 56.607L507.09 57.547L518.314 65.912Z" fill="#4C5072"/>
<path d="M506.363 58.542C507.259 58.5423 508.118 58.1867 508.751 57.5536C509.385 56.9205 509.741 56.0616 509.741 55.166C509.741 54.2704 509.386 53.4113 508.753 52.7778C508.119 52.1443 507.261 51.7883 506.365 51.788C505.922 51.7879 505.482 51.8751 505.073 52.0447C504.663 52.2143 504.29 52.4629 503.977 52.7764C503.343 53.4095 502.987 54.2684 502.987 55.164C502.987 56.0596 503.342 56.9187 503.975 57.5522C504.609 58.1857 505.467 58.5417 506.363 58.542Z" fill="#4093F5"/>
<path d="M506.363 56.956C506.838 56.956 507.294 56.7673 507.629 56.4314C507.965 56.0955 508.154 55.64 508.154 55.165C508.154 54.69 507.965 54.2344 507.629 53.8986C507.294 53.5627 506.838 53.374 506.363 53.374C505.888 53.374 505.432 53.5627 505.097 53.8986C504.761 54.2344 504.572 54.69 504.572 55.165C504.572 55.64 504.761 56.0955 505.097 56.4314C505.432 56.7673 505.888 56.956 506.363 56.956Z" fill="white"/>
<path d="M603.362 26.227H587.126V88.284H603.362V26.227Z" fill="#92CEFF"/>
<path d="M606.907 26.227H603.362V88.284H606.907V26.227Z" fill="#EDF1F4"/>
<path d="M584.415 29.451L568.874 24.753L550.903 84.153L566.444 88.852L584.415 29.451Z" fill="#92CEFF"/>
<path d="M566.477 88.782L569.87 89.808L587.835 30.408L584.442 29.382L566.477 88.782Z" fill="#EDF1F4"/>
<path d="M623.904 43.768H609.123V88.284H623.904V43.768Z" fill="#FFD357"/>
<path d="M627.133 43.768H623.904V88.284H627.133V43.768Z" fill="#EDF1F4"/>
<path d="M472.609 71.392H399.018V88.173H472.609V71.392Z" fill="#4093F5"/>
<path d="M464.04 77.234H441.862V82.329H464.04V77.234Z" fill="#4C5072"/>
<path d="M462.024 54.522H388.433V71.302H462.024V54.522Z" fill="#E93E72"/>
<path d="M453.455 60.366H431.277V65.46H453.455V60.366Z" fill="#4C5072"/>
<path d="M24.7173 119.182H28.8402V134.48C28.8331 135.886 28.5277 137.101 27.924 138.124C27.3274 139.146 26.4929 139.931 25.4205 140.478C24.348 141.025 23.098 141.298 21.6705 141.298C20.3849 141.298 19.2237 141.071 18.1868 140.616C17.1499 140.155 16.3295 139.466 15.7259 138.55C15.1222 137.626 14.8203 136.476 14.8203 135.098H18.9538C18.968 135.68 19.0959 136.185 19.3374 136.611C19.5788 137.03 19.9126 137.353 20.3388 137.58C20.772 137.8 21.2763 137.911 21.8516 137.911C22.4624 137.911 22.9808 137.783 23.407 137.527C23.8331 137.264 24.1562 136.877 24.3764 136.366C24.6037 135.854 24.7173 135.226 24.7173 134.48V119.182ZM44.8283 125.265C44.736 124.356 44.3347 123.649 43.6245 123.145C42.9142 122.641 41.9838 122.388 40.8333 122.388C40.0307 122.388 39.3453 122.506 38.7772 122.74C38.2161 122.974 37.7828 123.298 37.4775 123.71C37.1792 124.121 37.0265 124.587 37.0194 125.105C37.0123 125.538 37.1081 125.915 37.307 126.234C37.513 126.554 37.79 126.827 38.138 127.055C38.486 127.282 38.8766 127.474 39.3098 127.63C39.7431 127.779 40.1905 127.907 40.6522 128.013L42.6657 128.514C43.5321 128.713 44.3525 128.983 45.1266 129.324C45.9007 129.658 46.5861 130.077 47.1827 130.581C47.7793 131.078 48.248 131.678 48.589 132.381C48.937 133.085 49.1145 133.905 49.1216 134.842C49.1145 136.135 48.7807 137.268 48.1202 138.241C47.4668 139.214 46.5186 139.97 45.2757 140.51C44.04 141.05 42.5414 141.32 40.78 141.32C39.0684 141.32 37.5804 141.057 36.3162 140.531C35.052 139.999 34.0648 139.221 33.3546 138.198C32.6444 137.168 32.2644 135.911 32.2147 134.427H36.2843C36.334 135.18 36.5577 135.808 36.9554 136.312C37.3603 136.81 37.8894 137.183 38.5428 137.431C39.1962 137.673 39.9313 137.793 40.748 137.793C41.579 137.793 42.307 137.669 42.932 137.42C43.5641 137.172 44.0577 136.824 44.4128 136.376C44.7679 135.929 44.9455 135.411 44.9455 134.821C44.9455 134.274 44.7857 133.82 44.4661 133.457C44.1536 133.095 43.7097 132.793 43.1344 132.552C42.5591 132.303 41.8809 132.08 41.0996 131.881L38.6493 131.252C36.8382 130.798 35.4071 130.098 34.356 129.153C33.312 128.209 32.79 126.948 32.79 125.371C32.79 124.072 33.1415 122.939 33.8446 121.973C34.5478 121 35.5101 120.244 36.7317 119.704C37.9533 119.157 39.3347 118.884 40.8759 118.884C42.4455 118.884 43.8198 119.157 44.9988 119.704C46.1848 120.244 47.1117 120.993 47.7793 121.952C48.454 122.911 48.802 124.015 48.8233 125.265H44.8283ZM72.1889 130.091C72.1889 132.449 71.745 134.466 70.8572 136.142C69.9766 137.811 68.7763 139.089 67.2564 139.977C65.7365 140.858 64.0178 141.298 62.1001 141.298C60.1825 141.298 58.4638 140.854 56.9439 139.967C55.424 139.079 54.2237 137.8 53.343 136.131C52.4624 134.455 52.022 132.442 52.022 130.091C52.022 127.733 52.4624 125.719 53.343 124.05C54.2237 122.374 55.424 121.096 56.9439 120.215C58.4638 119.327 60.1825 118.884 62.1001 118.884C64.0178 118.884 65.7365 119.327 67.2564 120.215C68.7763 121.096 69.9766 122.374 70.8572 124.05C71.745 125.719 72.1889 127.733 72.1889 130.091ZM67.9915 130.091C67.9915 128.472 67.7429 127.104 67.2457 125.989C66.7486 124.874 66.0561 124.029 65.1683 123.454C64.2876 122.879 63.2649 122.591 62.1001 122.591C60.9354 122.591 59.9091 122.879 59.0213 123.454C58.1406 124.029 57.4517 124.874 56.9545 125.989C56.4574 127.104 56.2088 128.472 56.2088 130.091C56.2088 131.71 56.4574 133.077 56.9545 134.192C57.4517 135.308 58.1406 136.153 59.0213 136.728C59.9091 137.303 60.9354 137.591 62.1001 137.591C63.2649 137.591 64.2876 137.303 65.1683 136.728C66.0561 136.153 66.7486 135.308 67.2457 134.192C67.7429 133.077 67.9915 131.71 67.9915 130.091ZM93.8686 119.182V141H90.2038L80.1683 126.49H79.9979V141H75.8324V119.182H79.5398L89.5327 133.702H89.7351V119.182H93.8686Z" fill="#2A2B3B"/>
</svg>
